<?xml version="1.0" encoding="UTF-8"?>
<svg id="Capa_1_copia" data-name="Capa 1 copia" xmlns="http://www.w3.org/2000/svg" viewBox="0 0 63.28 63.28">
  <defs>
    <style>
      .cls-1 {
        fill: #fff;
      }
    </style>
  </defs>
  <path class="cls-1" d="M44.92,33.64h-8.8l6.22,6.22c1.33-1.79,2.25-3.91,2.58-6.22Z"/>
  <path class="cls-1" d="M42.3,17.69l2.41-2.35c-6.24-5.06-14.38-6.23-21.71-3.09-7.34,3.14-12.1,9.85-12.74,17.94l-.05.96v.99c.29,8.27,4.91,15.27,12.36,18.66,7.42,3.37,15.69,2.28,22.15-2.92l-2.37-2.35c-3.04,2.43-6.89,3.88-11.08,3.88-9.8,0-17.78-7.97-17.78-17.78s7.97-17.78,17.78-17.78c4.04,0,7.89,1.35,11.02,3.82Z"/>
  <path class="cls-1" d="M31.64,0C14.17,0,0,14.17,0,31.64s14.17,31.64,31.64,31.64,31.64-14.17,31.64-31.64S49.12,0,31.64,0ZM31.29,45.41c3.08,0,5.92-1.01,8.22-2.73l-9.63-9.63c-.57-.57-.74-1.43-.43-2.18.31-.75,1.04-1.23,1.85-1.23h15.78c1.1,0,2,.9,2,2,0,4.18-1.45,8.03-3.87,11.07l3.84,3.81c.38.38.59.89.59,1.43,0,.54-.22,1.05-.6,1.42l-.75.73s-.05.05-.08.07l-.79.7c-4.73,3.84-10.42,5.82-16.14,5.82-3.5,0-7.02-.74-10.33-2.25-8.73-3.97-14.36-12.49-14.7-22.23v-1.11s0-.07,0-.11l.06-1.06c.75-9.65,6.42-17.62,15.15-21.36,8.75-3.74,18.43-2.34,25.91,3.75l.85.74s.05.05.08.07l.75.73c.39.38.6.89.6,1.43s-.22,1.06-.6,1.43l-5.25,5.12c-.79.77-2.05.75-2.82-.03-2.59-2.53-6.03-3.95-9.65-3.95-7.6,0-13.78,6.18-13.78,13.78s6.18,13.78,13.78,13.78Z"/>
</svg>