<svg id="C01" xmlns="http://www.w3.org/2000/svg" viewBox="0 0 283.75 314.48">
  <defs>
    <style>
      .cls-1{fill:none;stroke:#fff;stroke-linecap:round;stroke-linejoin:round;stroke-width:8px;}
    </style>
  </defs>
  <path class="cls-1" d="M286.63,279.58l10.84,10.84-5,4.88-5.26,4.62C187.22,381.13,40.44,314.38,36,185.6v-6.93l.39-7.06C46.14,46.53,189.9-14.92,287.2,64.35L292.46,69l5,4.87L275.81,96.33,271.32,92l-4.74-4-4.88-3.85a122.47,122.47,0,0,0-135.23-6.42l-5.38,3.34-5,3.59A122.5,122.5,0,0,0,71.82,218.09l1.92,5.9,2.31,5.77,2.44,5.78C134.4,346.8,295.85,319,311.1,195.38l.51-6.16.13-6.29-122.66-.65,76.29,76.29" transform="translate(-31.98 -24.9)"/>
</svg>
